<svg width="414" height="307" viewBox="0 0 414 307" fill="none" xmlns="http://www.w3.org/2000/svg">
<ellipse cx="207" cy="3.5" rx="265" ry="303.5" fill="#550CF0" fill-opacity="0.76"/>
<path d="M70.912 139.336C67.744 139.336 64.832 138.6 62.176 137.128C59.552 135.656 57.456 133.608 55.888 130.984C54.352 128.328 53.584 125.352 53.584 122.056C53.584 118.76 54.352 115.8 55.888 113.176C57.456 110.552 59.552 108.504 62.176 107.032C64.832 105.56 67.744 104.824 70.912 104.824C74.08 104.824 76.976 105.56 79.6 107.032C82.256 108.504 84.336 110.552 85.84 113.176C87.376 115.8 88.144 118.76 88.144 122.056C88.144 125.352 87.376 128.328 85.84 130.984C84.304 133.608 82.224 135.656 79.6 137.128C76.976 138.6 74.08 139.336 70.912 139.336ZM70.912 131.848C73.6 131.848 75.744 130.952 77.344 129.16C78.976 127.368 79.792 125 79.792 122.056C79.792 119.08 78.976 116.712 77.344 114.952C75.744 113.16 73.6 112.264 70.912 112.264C68.192 112.264 66.016 113.144 64.384 114.904C62.784 116.664 61.984 119.048 61.984 122.056C61.984 125.032 62.784 127.416 64.384 129.208C66.016 130.968 68.192 131.848 70.912 131.848ZM136.438 112.216L129.19 139H120.118L115.894 121.624L111.526 139H102.502L95.2064 112.216H103.414L107.206 131.368L111.718 112.216H120.406L124.966 131.272L128.71 112.216H136.438ZM161.168 111.928C164.304 111.928 166.8 112.952 168.656 115C170.544 117.016 171.488 119.8 171.488 123.352V139H163.328V124.456C163.328 122.664 162.864 121.272 161.936 120.28C161.008 119.288 159.76 118.792 158.192 118.792C156.624 118.792 155.376 119.288 154.448 120.28C153.52 121.272 153.056 122.664 153.056 124.456V139H144.848V112.216H153.056V115.768C153.888 114.584 155.008 113.656 156.416 112.984C157.824 112.28 159.408 111.928 161.168 111.928ZM207.72 125.176C207.72 125.944 207.672 126.744 207.576 127.576H189C189.128 129.24 189.656 130.52 190.584 131.416C191.544 132.28 192.712 132.712 194.088 132.712C196.136 132.712 197.56 131.848 198.36 130.12H207.096C206.648 131.88 205.832 133.464 204.648 134.872C203.496 136.28 202.04 137.384 200.28 138.184C198.52 138.984 196.552 139.384 194.376 139.384C191.752 139.384 189.416 138.824 187.368 137.704C185.32 136.584 183.72 134.984 182.568 132.904C181.416 130.824 180.84 128.392 180.84 125.608C180.84 122.824 181.4 120.392 182.52 118.312C183.672 116.232 185.272 114.632 187.32 113.512C189.368 112.392 191.72 111.832 194.376 111.832C196.968 111.832 199.272 112.376 201.288 113.464C203.304 114.552 204.872 116.104 205.992 118.12C207.144 120.136 207.72 122.488 207.72 125.176ZM199.32 123.016C199.32 121.608 198.84 120.488 197.88 119.656C196.92 118.824 195.72 118.408 194.28 118.408C192.904 118.408 191.736 118.808 190.776 119.608C189.848 120.408 189.272 121.544 189.048 123.016H199.32ZM225.538 116.68C226.498 115.208 227.698 114.056 229.138 113.224C230.578 112.36 232.178 111.928 233.938 111.928V120.616H231.682C229.634 120.616 228.098 121.064 227.074 121.96C226.05 122.824 225.538 124.36 225.538 126.568V139H217.33V112.216H225.538V116.68ZM254.038 139.384C251.702 139.384 249.622 138.984 247.798 138.184C245.974 137.384 244.534 136.296 243.478 134.92C242.422 133.512 241.83 131.944 241.702 130.216H249.814C249.91 131.144 250.342 131.896 251.11 132.472C251.878 133.048 252.822 133.336 253.942 133.336C254.966 133.336 255.75 133.144 256.294 132.76C256.87 132.344 257.158 131.816 257.158 131.176C257.158 130.408 256.758 129.848 255.958 129.496C255.158 129.112 253.862 128.696 252.07 128.248C250.15 127.8 248.55 127.336 247.27 126.856C245.99 126.344 244.886 125.56 243.958 124.504C243.03 123.416 242.566 121.96 242.566 120.136C242.566 118.6 242.982 117.208 243.814 115.96C244.678 114.68 245.926 113.672 247.558 112.936C249.222 112.2 251.19 111.832 253.462 111.832C256.822 111.832 259.462 112.664 261.382 114.328C263.334 115.992 264.454 118.2 264.742 120.952H257.158C257.03 120.024 256.614 119.288 255.91 118.744C255.238 118.2 254.342 117.928 253.222 117.928C252.262 117.928 251.526 118.12 251.014 118.504C250.502 118.856 250.246 119.352 250.246 119.992C250.246 120.76 250.646 121.336 251.446 121.72C252.278 122.104 253.558 122.488 255.286 122.872C257.27 123.384 258.886 123.896 260.134 124.408C261.382 124.888 262.47 125.688 263.398 126.808C264.358 127.896 264.854 129.368 264.886 131.224C264.886 132.792 264.438 134.2 263.542 135.448C262.678 136.664 261.414 137.624 259.75 138.328C258.118 139.032 256.214 139.384 254.038 139.384ZM291.651 111.928C294.723 111.928 297.187 112.952 299.043 115C300.899 117.016 301.827 119.8 301.827 123.352V139H293.667V124.456C293.667 122.664 293.203 121.272 292.275 120.28C291.347 119.288 290.099 118.792 288.531 118.792C286.963 118.792 285.715 119.288 284.787 120.28C283.859 121.272 283.395 122.664 283.395 124.456V139H275.187V103.48H283.395V115.816C284.227 114.632 285.363 113.688 286.803 112.984C288.243 112.28 289.859 111.928 291.651 111.928ZM316.939 109.432C315.499 109.432 314.315 109.016 313.387 108.184C312.491 107.32 312.043 106.264 312.043 105.016C312.043 103.736 312.491 102.68 313.387 101.848C314.315 100.984 315.499 100.552 316.939 100.552C318.347 100.552 319.499 100.984 320.395 101.848C321.323 102.68 321.787 103.736 321.787 105.016C321.787 106.264 321.323 107.32 320.395 108.184C319.499 109.016 318.347 109.432 316.939 109.432ZM321.019 112.216V139H312.811V112.216H321.019ZM340.455 116.008C341.255 114.76 342.359 113.752 343.767 112.984C345.175 112.216 346.823 111.832 348.711 111.832C350.919 111.832 352.919 112.392 354.711 113.512C356.503 114.632 357.911 116.232 358.935 118.312C359.991 120.392 360.519 122.808 360.519 125.56C360.519 128.312 359.991 130.744 358.935 132.856C357.911 134.936 356.503 136.552 354.711 137.704C352.919 138.824 350.919 139.384 348.711 139.384C346.855 139.384 345.207 139 343.767 138.232C342.359 137.464 341.255 136.472 340.455 135.256V151.768H332.247V112.216H340.455V116.008ZM352.167 125.56C352.167 123.512 351.591 121.912 350.439 120.76C349.319 119.576 347.927 118.984 346.263 118.984C344.631 118.984 343.239 119.576 342.087 120.76C340.967 121.944 340.407 123.56 340.407 125.608C340.407 127.656 340.967 129.272 342.087 130.456C343.239 131.64 344.631 132.232 346.263 132.232C347.895 132.232 349.287 131.64 350.439 130.456C351.591 129.24 352.167 127.608 352.167 125.56ZM115.152 169.608C115.152 166.824 115.712 164.392 116.832 162.312C117.984 160.232 119.568 158.632 121.584 157.512C123.632 156.392 125.968 155.832 128.592 155.832C131.952 155.832 134.752 156.712 136.992 158.472C139.264 160.232 140.752 162.712 141.456 165.912H132.72C131.984 163.864 130.56 162.84 128.448 162.84C126.944 162.84 125.744 163.432 124.848 164.616C123.952 165.768 123.504 167.432 123.504 169.608C123.504 171.784 123.952 173.464 124.848 174.648C125.744 175.8 126.944 176.376 128.448 176.376C130.56 176.376 131.984 175.352 132.72 173.304H141.456C140.752 176.44 139.264 178.904 136.992 180.696C134.72 182.488 131.92 183.384 128.592 183.384C125.968 183.384 123.632 182.824 121.584 181.704C119.568 180.584 117.984 178.984 116.832 176.904C115.712 174.824 115.152 172.392 115.152 169.608ZM167.59 155.928C170.662 155.928 173.126 156.952 174.982 159C176.838 161.016 177.766 163.8 177.766 167.352V183H169.606V168.456C169.606 166.664 169.142 165.272 168.214 164.28C167.286 163.288 166.038 162.792 164.47 162.792C162.902 162.792 161.654 163.288 160.726 164.28C159.798 165.272 159.334 166.664 159.334 168.456V183H151.126V147.48H159.334V159.816C160.166 158.632 161.302 157.688 162.742 156.984C164.182 156.28 165.798 155.928 167.59 155.928ZM187.118 169.56C187.118 166.808 187.63 164.392 188.654 162.312C189.71 160.232 191.134 158.632 192.926 157.512C194.718 156.392 196.718 155.832 198.926 155.832C200.814 155.832 202.462 156.216 203.87 156.984C205.31 157.752 206.414 158.76 207.182 160.008V156.216H215.39V183H207.182V179.208C206.382 180.456 205.262 181.464 203.822 182.232C202.414 183 200.766 183.384 198.878 183.384C196.702 183.384 194.718 182.824 192.926 181.704C191.134 180.552 189.71 178.936 188.654 176.856C187.63 174.744 187.118 172.312 187.118 169.56ZM207.182 169.608C207.182 167.56 206.606 165.944 205.454 164.76C204.334 163.576 202.958 162.984 201.326 162.984C199.694 162.984 198.302 163.576 197.15 164.76C196.03 165.912 195.47 167.512 195.47 169.56C195.47 171.608 196.03 173.24 197.15 174.456C198.302 175.64 199.694 176.232 201.326 176.232C202.958 176.232 204.334 175.64 205.454 174.456C206.606 173.272 207.182 171.656 207.182 169.608ZM230.736 153.432C229.296 153.432 228.112 153.016 227.184 152.184C226.288 151.32 225.84 150.264 225.84 149.016C225.84 147.736 226.288 146.68 227.184 145.848C228.112 144.984 229.296 144.552 230.736 144.552C232.144 144.552 233.296 144.984 234.192 145.848C235.12 146.68 235.584 147.736 235.584 149.016C235.584 150.264 235.12 151.32 234.192 152.184C233.296 153.016 232.144 153.432 230.736 153.432ZM234.816 156.216V183H226.608V156.216H234.816ZM262.364 155.928C265.5 155.928 267.996 156.952 269.852 159C271.74 161.016 272.684 163.8 272.684 167.352V183H264.524V168.456C264.524 166.664 264.06 165.272 263.132 164.28C262.204 163.288 260.956 162.792 259.388 162.792C257.82 162.792 256.572 163.288 255.644 164.28C254.716 165.272 254.252 166.664 254.252 168.456V183H246.044V156.216H254.252V159.768C255.084 158.584 256.204 157.656 257.612 156.984C259.02 156.28 260.604 155.928 262.364 155.928Z" fill="#10FEF0"/>
</svg>